<svg width="250" height="160" viewBox="0 0 250 160" fill="none" xmlns="http://www.w3.org/2000/svg">
<rect width="250" height="160" fill="white"/>
<path opacity="0.6" d="M97.5687 34.1721C97.5687 34.1721 112.741 0.475006 154.148 13.0635C200.703 27.2638 161.792 68.8288 206.234 73.1656C250.675 77.5025 240.458 142.901 208.807 144.398C146.735 147.353 71.7948 148.696 44.4077 144.974C6.41913 139.792 3.96081 104.291 26.124 94.1208C48.2872 83.9502 37.2248 70.5942 54.5483 53.4386C78.4016 29.912 91.9223 56.6625 97.5687 34.1721Z" fill="#FFEBEE"/>
<path d="M212.585 73.768C212.585 73.768 207.514 76.9534 205.056 81.4055C202.06 86.8553 207.207 94.8383 202.905 99.3287C198.603 103.819 190.729 106.275 189.73 113.606C188.731 120.975 195.722 128.535 187.694 133.294C179.666 138.053 196.874 148.416 196.874 148.416C196.874 148.416 211.01 139.934 213.238 132.642C215.465 125.35 212.469 119.094 215.542 116.062C218.615 113.03 225.375 107.35 222.379 98.4843C220.728 93.5717 218.807 87.9683 223.378 80.1773C227.987 72.4247 219.844 67.1667 212.585 73.768Z" fill="#EF5350"/>
<path d="M200.408 138.245L200.14 138.092C200.14 138.092 200.985 136.749 201.484 134.561C201.945 132.527 202.214 129.265 200.869 125.35C198.603 118.749 202.483 115.333 206.554 111.764C210.28 108.501 214.083 105.162 213.161 99.1367C211.087 85.8575 215.043 83.6314 215.197 83.5547L215.35 83.8233C215.35 83.8233 214.39 84.3607 213.66 86.5099C213.007 88.5056 212.431 92.2668 213.468 99.0983C214.428 105.277 210.549 108.693 206.746 112.032C202.713 115.563 198.949 118.864 201.138 125.273C202.483 129.226 202.214 132.565 201.753 134.638C201.253 136.864 200.447 138.169 200.408 138.245Z" fill="white"/>
<path d="M207.322 111.495L207.245 111.188C207.284 111.188 212.508 109.653 215.196 106.467C217.847 103.282 218.308 99.0217 218.308 98.9833L218.615 99.0217C218.615 99.06 218.154 103.435 215.427 106.698C212.7 109.921 207.361 111.457 207.322 111.495Z" fill="white"/>
<path d="M209.32 109.461C206.477 107.081 207.169 104.51 207.975 101.555C208.667 98.9833 209.473 96.0665 207.975 92.7274L208.244 92.6123C209.819 96.0281 209.012 99.0217 208.283 101.631C207.514 104.51 206.823 106.966 209.512 109.231L209.32 109.461Z" fill="white"/>
<path d="M200.293 121.205C197.566 118.941 197.336 113.99 199.794 110.42C202.252 106.851 201.868 104.433 201.868 104.395L202.175 104.356C202.175 104.471 202.559 106.966 200.063 110.612C197.681 114.066 197.873 118.825 200.485 120.975L200.293 121.205Z" fill="white"/>
<path d="M202.022 132.834L201.83 132.565C203.942 131.145 206.554 125.926 206.554 121.55C206.554 119.977 207.515 118.403 209.32 117.06C210.664 116.062 212.009 115.525 212.047 115.525L212.162 115.832C212.124 115.87 206.862 117.943 206.862 121.55C206.9 125.235 204.711 131.068 202.022 132.834Z" fill="white"/>
<path d="M35.8296 72.973C35.8296 72.973 41.284 75.4293 44.3185 79.5359C48.006 84.5636 43.9728 93.1222 48.851 96.9985C53.7292 100.875 61.834 102.257 63.7929 109.433C65.7519 116.61 59.875 125.054 68.4407 128.7C77.0064 132.346 61.3346 144.896 61.3346 144.896C61.3346 144.896 46.2006 138.372 43.0125 131.425C39.8244 124.478 41.9754 117.915 38.5184 115.306C35.023 112.696 27.6097 107.975 29.3766 98.8024C30.3753 93.7363 31.5276 87.9026 25.958 80.8024C20.3884 73.7022 27.7633 67.408 35.8296 72.973Z" fill="#EF5350"/>
<path d="M56.4948 135.224L56.7252 135.033C56.7252 135.033 55.7265 133.843 54.9199 131.694C54.1901 129.736 53.4987 126.551 54.3053 122.521C55.6881 115.651 51.3861 112.811 46.8536 109.817C42.7436 107.092 38.4799 104.252 38.6336 98.1883C38.9025 84.7555 34.7157 83.0668 34.562 83.0284L34.4468 83.3355C34.4468 83.3355 35.4839 83.7576 36.4826 85.7534C37.4044 87.634 38.4799 91.3184 38.3263 98.1883C38.2111 104.444 42.5131 107.323 46.6999 110.086C51.1556 113.041 55.3424 115.843 54.0364 122.482C53.2298 126.589 53.9212 129.851 54.6894 131.847C55.4577 133.996 56.4563 135.186 56.4948 135.224Z" fill="white"/>
<path d="M46.0855 109.625L46.1239 109.318C46.0855 109.318 40.6696 108.474 37.6351 105.672C34.5622 102.871 33.5635 98.6872 33.5635 98.6488L33.2562 98.7256C33.2562 98.7639 34.2933 103.024 37.443 105.903C40.5543 108.781 46.0087 109.625 46.0855 109.625Z" fill="white"/>
<path d="M43.8194 107.898C46.3161 105.135 45.279 102.717 44.0882 99.877C43.0511 97.4207 41.8604 94.6573 42.9359 91.1264L42.6286 91.0497C41.5147 94.6573 42.7438 97.4974 43.7809 99.9921C44.9333 102.717 45.932 105.097 43.5889 107.668L43.8194 107.898Z" fill="white"/>
<path d="M54.3438 118.338C56.7637 115.728 56.3027 110.777 53.3835 107.591C50.5027 104.406 50.5027 101.911 50.5411 101.911H50.2338C50.2338 102.026 50.1954 104.521 53.1914 107.822C55.9954 110.93 56.418 115.651 54.1517 118.146L54.3438 118.338Z" fill="white"/>
<path d="M54.1519 130.082L54.3055 129.813C52.0008 128.7 48.7359 123.864 48.1597 119.527C47.9293 117.954 46.7769 116.534 44.818 115.459C43.3583 114.653 41.9755 114.308 41.8987 114.308L41.8219 114.615C41.8603 114.615 47.3531 115.996 47.8524 119.604C48.3518 123.212 51.271 128.7 54.1519 130.082Z" fill="white"/>
<path d="M63.7275 57.2449C63.7275 57.2449 59.8699 61.8219 58.9036 66.8022C57.7402 72.9176 65.045 78.9356 62.2882 84.5187C59.5313 90.1017 52.8224 94.8234 54.0912 102.131C55.398 109.443 64.3403 114.566 58.1713 121.533C52.0024 128.5 71.5247 133.122 71.5247 133.122C71.5247 133.122 82.4013 120.767 82.3047 113.119C82.1701 105.467 77.4381 100.466 79.4511 96.6009C81.4642 92.7354 86.1813 85.3332 80.6421 77.779C77.5805 73.593 74.0552 68.8386 76.0189 60.0448C77.9827 51.251 68.6364 48.7457 63.7275 57.2449Z" fill="#EF9A9A"/>
<path d="M71.7486 122.342L71.4496 122.262C71.4496 122.262 71.8572 120.73 71.6269 118.489C71.4514 116.41 70.6964 113.205 68.2462 109.918C64.0661 104.297 66.7347 99.9032 69.5598 95.221C72.0877 91.001 74.7129 86.6396 72.0218 81.1878C66.0219 69.1516 69.0799 65.8582 69.2152 65.722L69.455 65.9492C69.455 65.9492 68.681 66.7713 68.6397 69.0131C68.6196 71.1028 69.2191 74.8678 72.3146 81.0349C75.0986 86.6547 72.4247 91.0868 69.8482 95.3775C67.0771 99.951 64.4952 104.28 68.5443 109.727C71.06 113.101 71.8097 116.344 71.9799 118.461C72.1616 120.772 71.7973 122.271 71.7486 122.342Z" fill="white"/>
<path d="M70.2102 94.7305L70.0518 94.4759C70.0951 94.4431 74.5934 91.3894 76.1774 87.5415C77.7613 83.6936 76.8725 79.5007 76.8398 79.4574L77.1601 79.3858C77.1548 79.4238 78.0657 83.7361 76.4711 87.66C74.8332 91.6166 70.2535 94.6978 70.2102 94.7305Z" fill="white"/>
<path d="M71.4945 92.197C68.0457 90.7858 67.9498 88.1374 67.7981 85.0549C67.7022 82.4064 67.5833 79.3672 65.0916 76.6558L65.3136 76.4543C67.8708 79.2523 67.9844 82.3295 68.1078 85.0593C68.2373 88.0225 68.3438 90.5949 71.613 91.9035L71.4945 92.197Z" fill="white"/>
<path d="M66.4463 106.141C63.1444 104.789 61.4231 100.17 62.7018 96.0079C63.9372 91.8789 62.8487 89.6733 62.854 89.6352L63.1468 89.4823C63.2123 89.569 64.2901 91.8507 63.0389 96.0937C61.8194 100.109 63.4859 104.565 66.6028 105.852L66.4463 106.141Z" fill="white"/>
<path d="M71.648 116.67L71.4029 116.481C72.9987 114.495 73.8808 108.728 72.563 104.553C72.0744 103.051 72.5192 101.253 73.8548 99.4627C74.8225 98.0864 75.9548 97.1981 75.9981 97.1654L76.1946 97.4253C76.1512 97.458 71.8123 101.038 72.8779 104.519C73.9488 107.962 73.6604 114.2 71.648 116.67Z" fill="white"/>
<path d="M180.793 54.9346C180.793 54.9346 176.798 59.9623 175.915 65.3738C174.839 71.9751 182.906 78.1925 180.14 84.2949C177.374 90.3972 170.307 95.6552 171.958 103.485C173.61 111.314 183.367 116.457 176.99 124.133C170.614 131.809 191.702 136.107 191.702 136.107C191.702 136.107 202.956 122.482 202.572 114.269C202.188 106.094 196.926 100.875 198.961 96.653C200.997 92.4313 205.799 84.3332 199.576 76.4271C196.157 72.0518 192.201 67.0625 194.045 57.5828C195.889 48.1031 185.786 45.6468 180.793 54.9346Z" fill="#EF9A9A"/>
<path d="M191.625 124.478L191.279 124.401C191.279 124.401 191.663 122.751 191.356 120.333C191.087 118.107 190.204 114.73 187.438 111.237C182.79 105.365 185.479 100.568 188.322 95.4633C190.895 90.8577 193.584 86.0603 190.473 80.3034C183.597 67.5998 186.785 63.9538 186.939 63.8386L187.169 64.0689C187.169 64.0689 186.363 64.9516 186.401 67.3695C186.44 69.5955 187.208 73.6254 190.742 80.1499C193.93 86.0603 191.202 90.9345 188.591 95.6168C185.787 100.606 183.136 105.327 187.669 111.045C190.473 114.576 191.395 118.03 191.663 120.295C192.009 122.789 191.625 124.401 191.625 124.478Z" fill="white"/>
<path d="M189.013 94.926L188.821 94.6574C188.86 94.619 193.584 91.2032 195.159 87.0199C196.695 82.8365 195.62 78.3461 195.62 78.3077L195.966 78.231C195.966 78.2693 197.08 82.8365 195.505 87.135C193.891 91.4335 189.052 94.8876 189.013 94.926Z" fill="white"/>
<path d="M190.319 92.1626C186.593 90.781 186.363 87.9409 186.132 84.6403C185.94 81.8002 185.671 78.538 182.944 75.7363L183.175 75.506C185.979 78.4228 186.248 81.7234 186.44 84.6019C186.67 87.7874 186.862 90.5123 190.396 91.8556L190.319 92.1626Z" fill="white"/>
<path d="M185.402 107.284C181.83 105.979 179.833 101.028 181.024 96.5379C182.214 92.0475 180.985 89.7064 180.947 89.7064L181.254 89.5529C181.292 89.668 182.56 92.0475 181.331 96.653C180.179 100.99 182.061 105.711 185.479 106.977L185.402 107.284Z" fill="white"/>
<path d="M191.318 118.414L191.049 118.222C192.701 116.035 193.43 109.817 191.894 105.404C191.318 103.792 191.74 101.873 193.085 99.8769C194.083 98.3801 195.236 97.3823 195.313 97.3439L195.543 97.6125C195.505 97.6509 190.934 101.642 192.24 105.327C193.507 108.973 193.392 115.689 191.318 118.414Z" fill="white"/>
<path d="M150.999 148.504H238C238 148.504 232.891 134.879 218.794 130.926C204.006 126.781 205.158 146.508 185.069 132.845C160.832 116.342 150.999 148.504 150.999 148.504Z" fill="#FFECB3"/>
<path d="M19.9785 148.504H98.2988C98.2988 148.504 89.8099 122.06 75.2521 120.487C51.5525 117.915 54.4717 142.401 41.0278 137.949C28.621 133.804 19.9785 148.504 19.9785 148.504Z" fill="#FEE082"/>
<path d="M219.832 148.504H141.511C141.511 148.504 150 122.06 164.558 120.487C188.258 117.915 185.338 142.401 198.782 137.949C211.189 133.804 219.832 148.504 219.832 148.504Z" fill="#FEE082"/>
<path d="M58.0055 148.504H121.96C121.96 148.504 114.662 125.86 102.217 124.517C81.8972 122.329 79.4773 138.371 69.1447 137.489C58.8121 136.606 58.0055 148.504 58.0055 148.504Z" fill="#FFECB3"/>
<path d="M138.127 22.4633L137.398 24.1903C137.398 24.1903 135.707 24.5741 135.899 24.766C136.092 24.9579 137.359 25.1498 137.436 25.4185C137.513 25.6871 138.089 26.9537 138.204 26.9537C138.473 26.9537 138.819 25.5336 139.164 25.3801C139.356 25.3033 140.394 24.8044 140.432 24.7277C140.47 24.6509 138.972 24.1136 138.972 24.1136C138.972 24.1136 138.166 22.233 138.127 22.4633Z" fill="white"/>
<path d="M123.915 32.1349L123.185 33.8619C123.185 33.8619 121.495 34.2457 121.687 34.4376C121.879 34.6295 123.147 34.8214 123.224 35.0901C123.3 35.3587 123.877 36.6253 123.992 36.6253C124.261 36.6253 124.606 35.2052 124.952 35.0517C125.144 34.9749 126.181 34.476 126.22 34.3993C126.258 34.3225 124.76 33.7852 124.76 33.7852C124.76 33.7852 123.953 31.943 123.915 32.1349Z" fill="white"/>
<path d="M156.334 31.5207L155.604 33.2478C155.604 33.2478 153.914 33.6316 154.106 33.8235C154.298 34.0154 155.566 34.2073 155.643 34.4759C155.72 34.7446 156.296 36.0111 156.411 36.0111C156.68 36.0111 157.026 34.5911 157.371 34.4376C157.563 34.3608 158.6 33.8619 158.639 33.7851C158.677 33.7084 157.179 33.171 157.179 33.171C157.179 33.171 156.373 31.3288 156.334 31.5207Z" fill="white"/>
<path d="M164.865 41.6958H194.365C194.365 41.6958 193.405 37.5508 190.37 38.587C186.606 39.8919 191.254 33.1755 183.379 31.4485C179.654 30.6425 177.695 37.2821 177.695 37.2821C175.582 33.5593 172.471 36.5146 171.587 39.2395C171.587 39.2779 167.784 35.7086 164.865 41.6958Z" fill="#FFCDD2"/>
<path d="M108.631 33.8663H79.1317C79.1317 33.8663 80.092 29.7213 83.1265 30.7576C86.8908 32.0625 82.243 25.3461 90.1173 23.619C93.8432 22.813 95.8021 29.4527 95.8021 29.4527C97.9147 25.7299 101.026 28.6851 101.909 31.41C101.909 31.4484 105.712 27.8407 108.631 33.8663Z" fill="#FFCDD2"/>
<path d="M228.551 61.7278H199.09C199.09 61.7278 200.05 57.5828 203.084 58.619C206.849 59.9239 202.201 53.2075 210.075 51.4805C213.801 50.6745 215.76 57.3141 215.76 57.3141C217.873 53.5913 220.984 56.5465 221.868 59.2715C221.829 59.3099 225.632 55.7406 228.551 61.7278Z" fill="#FFCDD2"/>
<path d="M21.9951 57.1242H51.4949C51.4949 57.1242 50.5346 52.9793 47.5001 54.0155C43.7358 55.3204 48.3836 48.604 40.5093 46.8769C36.7834 46.071 34.8244 52.7106 34.8244 52.7106C32.7118 48.9878 29.6005 51.943 28.7171 54.668C28.7171 54.7063 24.9144 51.0987 21.9951 57.1242Z" fill="#FFCDD2"/>
<path d="M94.0153 107.162H172.304V128.282H94.0153C88.1536 128.282 83.4465 123.534 83.4465 117.722C83.4465 111.909 88.1536 107.162 94.0153 107.162Z" fill="#EF9A9A"/>
<path d="M146.593 110.889H122.791H95.8362C92.0616 110.889 88.9531 113.95 88.9531 117.766C88.9531 121.538 92.0172 124.644 95.8362 124.644H122.791H146.593H173.548V110.933H146.593V110.889Z" fill="white"/>
<path d="M173.725 113.507H90.5516V113.862H173.725V113.507Z" fill="#3E454A"/>
<path d="M173.548 120.916H89.7523V121.271H173.548V120.916Z" fill="#3E454A"/>
<path d="M173.548 117.411H88.9531V117.766H173.548V117.411Z" fill="#3E454A"/>
<path d="M163.157 149.358H84.8678V128.238H163.157C169.018 128.238 173.726 132.985 173.726 138.798C173.726 144.61 169.018 149.358 163.157 149.358Z" fill="#B71B1C"/>
<path d="M110.579 145.631H134.381H161.336C165.111 145.631 168.219 142.569 168.219 138.753C168.219 134.982 165.155 131.876 161.336 131.876H134.381H110.579H83.6243V145.586H110.579V145.631Z" fill="white"/>
<path d="M166.62 142.702H83.4465V143.057H166.62V142.702Z" fill="#3E454A"/>
<path d="M167.42 135.248H83.6243V135.603H167.42V135.248Z" fill="#3E454A"/>
<path d="M168.219 138.753H83.6243V139.108H168.219V138.753Z" fill="#3E454A"/>
<path d="M128.963 135.736C128.963 135.736 128.208 140.439 129.718 141.194C131.228 141.948 137.889 141.415 137.445 140.75C137.001 140.084 133.582 138.709 133.182 137.333C132.782 135.958 133.271 134.982 132.205 135.115C131.139 135.248 128.963 135.736 128.963 135.736Z" fill="#3E454A"/>
<path d="M132.427 138.62L132.294 138.31C132.338 138.31 133.093 137.999 133.848 137.91L133.892 138.221C133.182 138.31 132.427 138.62 132.427 138.62Z" fill="white"/>
<path d="M133.537 139.463L133.36 139.153C133.404 139.153 134.115 138.753 134.825 138.576L134.914 138.886C134.203 139.064 133.537 139.419 133.537 139.463Z" fill="white"/>
<path d="M134.381 140.084L134.203 139.774C134.248 139.774 134.958 139.375 135.669 139.197L135.757 139.508C135.091 139.729 134.381 140.084 134.381 140.084Z" fill="white"/>
<path d="M158.449 123.579C158.449 123.579 161.247 127.439 162.845 126.862C164.444 126.33 168.752 121.183 167.952 121.05C167.153 120.872 163.778 122.381 162.535 121.671C161.291 120.961 160.936 119.985 160.27 120.828C159.604 121.671 158.449 123.579 158.449 123.579Z" fill="#3E454A"/>
<path d="M162.979 123.135L162.668 123.002C162.668 122.958 163.023 122.248 163.467 121.626L163.733 121.804C163.289 122.381 162.979 123.135 162.979 123.135Z" fill="white"/>
<path d="M164.355 122.957L164.044 122.869C164.044 122.824 164.266 122.07 164.666 121.405L164.977 121.582C164.577 122.159 164.355 122.913 164.355 122.957Z" fill="white"/>
<path d="M165.377 122.78L165.066 122.691C165.066 122.647 165.288 121.893 165.687 121.227L165.998 121.405C165.643 122.026 165.421 122.78 165.377 122.78Z" fill="white"/>
<path d="M127.009 75.038C127.009 75.038 135.535 76.2803 139.399 81.516C141.042 83.7789 136.779 88.5265 135.535 89.0589C134.292 89.5913 129.185 86.308 128.519 85.7755C127.853 85.2431 124.7 75.4373 127.009 75.038Z" fill="#FFCDD2"/>
<path d="M103.163 79.8743C103.163 79.8743 101.342 75.5704 104.318 73.7956C107.293 72.0208 108.447 73.4406 109.025 70.5122C109.602 67.5838 111.201 65.809 113.821 65.7202C116.441 65.6315 115.552 60.9283 119.682 58.7541C124.256 56.3582 126.876 57.9998 129.23 60.8839C131.716 63.9011 128.12 70.5566 128.697 72.4201C129.274 74.328 129.807 76.2803 125.899 78.8094C121.991 81.3385 112 92.1648 103.163 79.8743Z" fill="#3E454A"/>
<path d="M120.304 65.7646C120.259 65.6315 119.415 62.7918 118.172 63.5017C116.929 64.2116 115.863 66.297 117.861 67.6725C119.815 69.0923 120.614 66.652 120.304 65.7646Z" fill="#DDA08A"/>
<path d="M109.557 108.449C109.557 108.449 105.028 104.189 104.761 97.3117C104.317 85.8642 108.003 76.9902 111.556 75.7479C117.24 73.7512 131.894 74.1949 131.85 78.0551C131.716 87.2841 133.67 95.7144 131.183 96.2024C105.028 101.172 115.597 110.223 109.557 108.449Z" fill="#FFCDD2"/>
<path d="M115.108 100.329C115.108 100.329 122.613 97.5779 129.274 99.7964C134.514 101.527 137.445 133.873 136.157 135.825C134.869 137.777 126.299 138.842 125.189 136.091C124.078 133.34 124.3 114.971 120.97 113.595C117.684 112.176 112.311 110.8 110.357 109.158C108.447 107.472 109.557 102.414 115.108 100.329Z" fill="#EF5350"/>
<path d="M125.766 99.3527C125.766 99.3527 132.694 94.5608 138.156 93.7177C143.618 92.8747 163.778 115.947 163.867 118.299C163.956 120.606 157.561 126.463 155.119 124.865C152.632 123.268 142.152 108.182 138.644 108.981C135.136 109.735 129.94 111.732 127.409 111.51C124.878 111.244 121.37 103.523 125.766 99.3527Z" fill="#EF5350"/>
<path d="M115.33 83.7789C115.33 83.7789 115.774 80.7173 118.172 80.4511C120.57 80.2293 126.299 84.6663 128.119 83.8676C129.94 83.0689 131.85 78.0551 134.381 78.1439C135.535 78.1882 136.646 80.318 136.335 82.1372C135.979 83.9564 130.961 87.3729 127.986 86.5742C125.011 85.7755 115.108 84.9325 115.33 83.7789Z" fill="white"/>
<path d="M112.932 98.4209C112.932 98.4209 113.554 82.5364 114.975 82.3146C116.396 82.0927 127.142 84.5774 127.764 84.7993C128.386 85.0211 136.024 79.0312 137.267 79.4305C138.51 79.8298 139.132 93.0521 139.132 94.6938C139.132 96.3355 129.229 99.6632 127.986 99.6632C126.743 99.6632 113.953 99.6632 112.932 98.4209Z" fill="#3E454A"/>
<path d="M100.143 93.0078C100.143 93.0078 97.7453 101.971 101.92 102.769C105.339 103.435 111.911 91.5436 114.531 91.0999C117.151 90.6562 117.284 89.9462 116.929 89.7244C116.574 89.5025 114.753 89.8575 114.753 89.8575C114.753 89.8575 117.284 88.7039 116.796 88.6151C116.307 88.5264 114.398 88.482 114.398 88.482C114.398 88.482 117.24 87.5503 116.352 87.3284C115.464 87.1066 115.419 86.8847 113.598 87.5503C111.778 88.2158 108.669 89.0145 105.25 91.9873C104.628 92.5641 101.031 91.4992 100.143 93.0078Z" fill="#DDA08A"/>
<path d="M144.106 87.2841C144.106 87.2841 142.552 83.7789 140.02 82.6252C137.489 81.4716 135.668 81.4716 135.668 82.0484C135.668 82.6252 137.711 83.2021 137.711 83.2021C137.711 83.2021 135.446 83.0689 135.757 83.6458C136.113 84.2226 137.8 84.5775 137.8 84.5775C137.8 84.5775 135.047 84.5775 135.846 85.2431C136.645 85.9086 137.8 85.3762 138.377 85.8199C138.955 86.2636 137.223 93.984 140.731 95.2263C144.239 96.4687 147.392 92.6529 144.106 87.2841Z" fill="#DDA08A"/>
<path d="M120.215 61.372C120.215 61.372 122.924 59.8634 125.721 61.1501C128.563 62.4369 128.652 66.9626 126.787 69.5361C124.922 72.1095 122.569 70.1129 122.657 72.5976C122.746 75.0823 122.302 73.4406 124.212 75.5704C126.121 77.7002 121.192 78.3213 118.661 77.1677C117.861 76.8128 117.95 76.0585 118.306 74.1506C118.705 72.2427 116.352 62.7031 120.215 61.372Z" fill="#DDA08A"/>
<path d="M101.076 87.6391C101.076 87.6391 108.847 87.7722 110.579 87.3728C112.311 86.9291 117.195 75.3042 114.309 75.038C111.423 74.7718 103.252 75.5704 101.076 87.6391Z" fill="#FFCDD2"/>
<path d="M123.679 68.2937L123.634 67.9831C124.123 67.9387 124.611 67.85 124.745 67.7612L124.301 65.7202L124.611 65.6315L125.055 67.7169C125.055 67.8056 125.055 67.85 125.011 67.9387C124.833 68.1606 124.034 68.2493 123.679 68.2937Z" fill="#3E454A"/>
<path d="M123.501 69.403C123.323 69.403 123.146 69.3586 123.013 69.2699C122.524 68.9593 122.435 68.2494 122.435 68.205L122.746 68.1606C122.746 68.1606 122.791 68.7374 123.146 68.9593C123.368 69.0924 123.634 69.048 123.99 68.9149L124.123 69.2255C123.901 69.3143 123.679 69.403 123.501 69.403Z" fill="#3E454A"/>
<path d="M122.302 65.9864C122.596 65.9864 122.835 65.748 122.835 65.4539C122.835 65.1599 122.596 64.9215 122.302 64.9215C122.008 64.9215 121.769 65.1599 121.769 65.4539C121.769 65.748 122.008 65.9864 122.302 65.9864Z" fill="#3E454A"/>
<path d="M126.299 66.7407C126.593 66.7407 126.831 66.5023 126.831 66.2082C126.831 65.9142 126.593 65.6758 126.299 65.6758C126.004 65.6758 125.766 65.9142 125.766 66.2082C125.766 66.5023 126.004 66.7407 126.299 66.7407Z" fill="#3E454A"/>
<path d="M125.011 60.3072C125.011 60.3072 124.123 59.9522 123.723 61.3721C123.324 62.7919 121.725 64.5667 120.26 64.6554C118.794 64.7442 118.039 63.0138 117.418 64.3005C116.796 65.5872 116.663 66.3415 117.64 66.6521C118.616 66.9627 119.283 66.5634 118.927 67.2289C118.528 67.8945 121.858 78.0108 112.488 74.9049C111.822 74.6831 115.996 68.2938 116.352 66.164C116.707 64.0343 116.396 61.8158 119.505 60.529C122.613 59.2423 124.434 59.0205 125.011 60.3072Z" fill="#3E454A"/>
<path d="M133.759 109.957C133.759 109.602 131.761 101.127 128.741 99.2196L128.919 98.9534C132.072 100.95 134.07 109.602 134.07 109.957H133.759H133.937H133.759Z" fill="#3E454A"/>
<path d="M156.184 124.067C156.051 123.889 143.928 108.005 141.397 107.206C138.866 106.408 134.248 108.138 134.203 108.182L134.07 107.872C134.248 107.783 138.821 106.053 141.486 106.896C144.106 107.739 155.918 123.224 156.451 123.845L156.184 124.067Z" fill="#3E454A"/>
<path d="M126.565 135.958C126.565 135.781 125.722 116.701 124.123 113.906C122.524 111.111 111.378 107.961 111.29 107.916L111.378 107.606C111.822 107.739 122.746 110.8 124.434 113.729C126.077 116.613 126.921 135.159 126.921 135.958H126.565Z" fill="#3E454A"/>
<path d="M100.987 87.6391C100.987 87.6391 106.005 86.7517 107.381 87.5504C108.758 88.3934 106.849 95.0933 106.849 95.8032C106.849 96.4687 101.209 101.172 100.099 100.906C98.9886 100.64 99.1218 90.745 100.987 87.6391Z" fill="#DDA08A"/>
<path d="M102.674 93.1852L102.497 92.919C102.63 92.8303 105.694 90.7005 107.648 89.9906L107.781 90.3012C105.827 90.9667 102.674 93.1409 102.674 93.1852Z" fill="#3E454A"/>
</svg>
